<svg xmlns="http://www.w3.org/2000/svg" viewBox="0 0 512 512">
  <!-- App icon (Nocturne): a pass with a check mark, perforation and three paid dots. -->
  <rect width="512" height="512" fill="#262044"/>
  <g transform="rotate(-12 256 256)">
    <path fill="#968bdd" d="M109 184a40 40 0 0 1 40-40h214a40 40 0 0 1 40 40v44a31 31 0 0 0 0 56v44a40 40 0 0 1-40 40H149a40 40 0 0 1-40-40v-44a31 31 0 0 0 0-56z"/>
    <path fill="none" stroke="#262044" stroke-width="18" stroke-linecap="round" stroke-linejoin="round" d="M170 262l34 32 64-72"/>
    <path fill="none" stroke="#5a4d99" stroke-width="8" stroke-dasharray="14 12" d="M327 168v176"/>
    <circle cx="366" cy="214" r="14" fill="#0e492a"/>
    <circle cx="366" cy="256" r="14" fill="#0e492a"/>
    <circle cx="366" cy="298" r="14" fill="#0e492a"/>
  </g>
</svg>
